<svg width="54" height="29" viewBox="0 0 54 29" fill="none" xmlns="http://www.w3.org/2000/svg">
<g clip-path="url(#clip0_1_158)">
<path d="M7.83173 28.6702L14.6852 22.6163H7.69466L7.83173 28.6702Z" fill="#002DE3"/>
<path d="M44.5297 23.3018L10.4269 23.3018C5.20856 23.3018 0.978271 19.0715 0.978271 13.8531L0.978271 9.44865C0.978271 4.23032 5.20856 2.67029e-05 10.4269 2.67029e-05L44.5297 2.67029e-05C49.748 2.67029e-05 53.9783 4.23032 53.9783 9.44865V13.8531C53.9783 19.0715 49.748 23.3018 44.5297 23.3018Z" fill="#002DE3"/>
<path d="M20.3964 13.7069C19.2608 13.7069 18.3403 12.7864 18.3403 11.6509C18.3403 10.5154 19.2608 9.59485 20.3964 9.59485C21.5319 9.59485 22.4524 10.5154 22.4524 11.6509C22.4524 12.7864 21.5319 13.7069 20.3964 13.7069Z" fill="white"/>
<path d="M27.4783 13.7069C26.3427 13.7069 25.4222 12.7864 25.4222 11.6509C25.4222 10.5154 26.3427 9.59485 27.4783 9.59485C28.6138 9.59485 29.5343 10.5154 29.5343 11.6509C29.5343 12.7864 28.6138 13.7069 27.4783 13.7069Z" fill="white"/>
<path d="M34.5602 13.7069C33.4247 13.7069 32.5041 12.7864 32.5041 11.6509C32.5041 10.5154 33.4247 9.59485 34.5602 9.59485C35.6957 9.59485 36.6162 10.5154 36.6162 11.6509C36.6162 12.7864 35.6957 13.7069 34.5602 13.7069Z" fill="white"/>
</g>
<defs>
<clipPath id="clip0_1_158">
<rect width="53" height="28.6703" fill="white" transform="matrix(-1 0 0 1 53.9783 0)"/>
</clipPath>
</defs>
</svg>
